<svg version="1.1" id="Layer_1" xmlns="http://www.w3.org/2000/svg" xmlns:xlink="http://www.w3.org/1999/xlink" x="0px" y="0px"
	 width="100%" viewBox="0 0 480 105" enable-background="new 0 0 480 105" xml:space="preserve">
<path fill="#000000" opacity="1.000000" stroke="none" 
	d="
M334.000000,106.000000 
	C222.666672,106.000000 111.833336,106.000000 1.000000,106.000000 
	C1.000000,71.000000 1.000000,36.000000 1.000000,1.000000 
	C161.000000,1.000000 321.000000,1.000000 481.000000,1.000000 
	C481.000000,36.000000 481.000000,71.000000 481.000000,106.000000 
	C432.166656,106.000000 383.333344,106.000000 334.000000,106.000000 
M270.197083,50.517391 
	C270.130707,57.303364 269.978485,64.090187 270.045380,70.874847 
	C270.068237,73.193352 270.641144,75.506424 271.856049,77.966240 
	C274.957092,77.643372 278.058105,77.320496 281.894531,76.543312 
	C281.928986,68.313217 282.009491,60.082623 281.919250,51.853893 
	C281.911133,51.114944 283.426849,47.671841 279.080261,49.984531 
	C276.378479,50.048088 273.676697,50.111645 270.197083,50.517391 
M412.767151,26.306068 
	C412.511597,27.641666 412.044922,28.975655 412.034729,30.313126 
	C411.968140,39.039604 411.960815,47.767197 412.038483,56.493496 
	C412.051880,57.997620 412.563965,59.497307 412.960815,61.810078 
	C414.246307,76.446266 429.209869,80.838936 441.878662,76.955116 
	C448.025879,75.070595 454.689148,66.809586 452.941772,56.380005 
	C450.502777,41.822208 439.096466,36.476059 425.096466,41.916569 
	C424.531586,37.074646 423.966736,32.232723 423.356018,26.997961 
	C420.011902,26.997961 416.590881,26.997961 412.767151,26.306068 
M261.075897,26.980156 
	C258.106171,27.322351 255.136429,27.664549 252.028732,28.929480 
	C252.028732,33.581734 252.028732,38.233990 252.028732,43.596172 
	C245.458359,38.695843 239.148193,38.839645 233.274780,41.068237 
	C223.920410,44.617634 219.878540,60.594845 226.181671,69.408653 
	C228.686035,72.910545 232.572342,76.757050 236.482773,77.680580 
	C250.448990,80.978981 259.134644,75.527832 263.943420,61.486675 
	C263.907349,61.320660 263.871277,61.154644 263.982971,60.063103 
	C263.987885,49.660419 264.029327,39.257362 263.922913,28.855818 
	C263.915070,28.087864 265.400635,24.685335 261.075897,26.980156 
M41.538723,40.989346 
	C41.347382,41.002968 41.156044,41.016586 40.077568,41.022434 
	C37.429035,41.009247 34.780502,40.996063 31.735580,40.295517 
	C31.503933,40.500847 31.070356,40.705387 31.069546,40.911629 
	C31.024450,52.402382 31.009441,63.893303 31.049984,75.383995 
	C31.050732,75.596237 31.755436,75.806000 33.022797,75.992493 
	C36.298191,76.001892 39.573582,76.011292 43.260288,76.699921 
	C43.492237,64.774704 43.724190,52.849483 43.956142,40.924267 
	C43.341938,40.936703 42.727730,40.949142 41.538723,40.989346 
M348.021149,27.912546 
	C348.013824,43.044197 347.980713,58.175949 348.039246,73.307343 
	C348.045074,74.813812 348.608917,76.318123 349.824371,77.966270 
	C352.886902,77.922935 355.949402,77.879601 359.843353,77.578438 
	C359.843353,60.429829 359.843353,43.281223 359.843353,25.514538 
	C355.621613,26.045544 351.889832,26.514919 348.021149,27.912546 
M303.972260,39.087471 
	C303.972260,34.900921 303.972260,30.714369 303.972260,26.618071 
	C299.327240,26.874975 295.810028,27.069504 292.156372,27.271578 
	C292.156372,31.429483 292.156372,35.221947 291.787201,39.694187 
	C290.568115,40.382595 289.349030,41.071003 288.128662,41.760132 
	C287.972168,44.305264 287.816895,46.830845 287.643188,49.655918 
	C289.495789,49.861507 291.068207,50.036003 292.999664,50.250340 
	C292.999664,57.024410 292.831360,63.650517 293.106750,70.258133 
	C293.184906,72.133621 294.062012,74.833305 295.442169,75.609970 
	C297.944855,77.018318 301.082336,77.801041 303.986633,77.898582 
	C312.570862,78.186920 313.550720,76.682350 311.243683,68.125259 
	C309.046387,68.453300 306.849091,68.781334 303.457489,69.287666 
	C303.303375,63.055466 303.032349,57.380302 303.154541,51.713623 
	C303.174347,50.793793 304.823547,49.316570 305.912567,49.108887 
	C312.764282,47.802223 312.782318,47.896782 311.397003,41.495804 
	C308.811951,40.985909 306.323059,40.494984 303.972260,39.087471 
M134.622879,70.335159 
	C138.793396,75.311722 143.619186,77.335167 150.582535,77.390541 
	C157.931900,77.449005 161.212280,72.645485 166.303406,69.130188 
	C163.852707,67.962357 161.791840,66.716400 159.559875,66.014351 
	C158.191452,65.583916 156.258530,65.451286 155.098740,66.105759 
	C149.126556,69.475945 145.803665,68.943047 141.704269,63.537292 
	C138.370926,59.141724 139.912766,54.360359 145.829437,50.239601 
	C149.184082,47.903214 154.006073,49.590767 157.066711,54.179295 
	C158.903473,52.892910 160.623856,51.377468 162.603226,50.371754 
	C165.888428,48.702545 165.761063,46.391430 163.166290,44.879269 
	C159.923386,42.989399 156.207703,41.775860 152.563156,40.736645 
	C143.406189,38.125610 134.578110,43.761185 131.565765,52.731781 
	C129.389053,59.213943 132.124084,64.383469 133.729050,70.096512 
	C133.828796,70.076927 133.928543,70.057343 134.622879,70.335159 
M92.999641,49.999847 
	C92.999641,49.999847 92.986366,49.989422 92.984428,50.625660 
	C94.325638,54.087646 95.666840,57.549637 97.000053,61.000206 
	C97.000053,61.000206 96.989319,60.991844 96.968590,61.736847 
	C97.982002,64.162086 98.995415,66.587334 100.000000,69.000114 
	C100.000000,69.000114 99.988052,68.990799 99.972832,69.768112 
	C100.375122,70.788544 100.853767,71.786263 101.165268,72.833694 
	C102.071243,75.879997 103.804428,77.432617 107.233315,77.057045 
	C110.063789,76.747025 112.951088,76.966919 115.808380,76.841835 
	C115.903366,76.837677 115.945839,75.634323 116.000443,74.999702 
	C116.000443,74.999702 115.991463,75.011757 116.577278,74.529312 
	C117.388870,72.016441 118.200462,69.503563 119.000130,67.000076 
	C119.000130,67.000076 118.991325,67.012558 119.570946,66.650276 
	C119.713455,65.767258 119.855957,64.884247 120.000000,64.000000 
	C120.000000,64.000000 120.000999,63.998711 120.554550,63.491203 
	C121.373962,60.990784 122.193367,58.490368 123.000443,55.999691 
	C123.000443,55.999691 122.991463,56.011757 123.566055,55.593658 
	C124.381630,53.059090 125.197205,50.524517 126.000443,47.999691 
	C126.000443,47.999691 125.991463,48.011757 126.580063,47.534794 
	C126.913788,45.517147 127.247505,43.499504 127.625923,41.211632 
	C123.651688,41.211632 120.228149,41.211632 117.407845,41.211632 
	C114.866478,48.335899 112.427864,55.172096 110.000000,61.999859 
	C110.000000,61.999859 110.007927,61.988392 109.358620,61.903690 
	C108.706963,61.397400 107.698067,61.020428 107.460533,60.364231 
	C105.668510,55.413551 104.039101,50.404232 102.336807,45.420776 
	C100.978218,41.443455 95.021812,39.182095 91.735168,41.581802 
	C90.925171,42.173214 90.300621,43.897903 90.543167,44.862041 
	C90.998322,46.671398 92.148422,48.305935 92.999641,49.999847 
M205.017746,75.849426 
	C207.763657,80.082893 211.843002,77.364372 215.314011,77.725365 
	C215.783371,77.774178 216.857666,76.621117 216.838562,76.051865 
	C216.592300,68.714928 216.198303,61.382938 215.973114,53.319950 
	C210.825058,41.706711 199.288345,36.385853 188.152176,40.393356 
	C175.225739,45.045109 173.213577,64.464462 181.905609,73.231026 
	C188.276764,79.656845 194.530594,81.329102 205.017746,75.849426 
M406.710114,57.258198 
	C402.538513,41.050781 392.514374,38.247169 378.975891,40.357212 
	C369.934814,41.766312 364.041412,52.370033 366.281616,63.302372 
	C368.030457,71.836708 374.203827,79.733917 384.820343,77.936508 
	C388.238129,77.357864 391.530426,76.037987 394.988556,75.909187 
	C396.629639,80.479851 400.323700,77.223732 402.981506,77.898041 
	C405.889801,78.635880 407.138184,76.932053 407.035004,73.930649 
	C406.852570,68.623436 406.889221,63.308689 406.710114,57.258198 
M51.670837,55.681873 
	C51.779644,57.498028 51.977577,59.313934 51.982616,61.130379 
	C52.012630,71.943710 52.121632,82.759361 51.928738,93.569321 
	C51.864697,97.158409 53.203163,98.062027 56.581055,98.105377 
	C60.185780,98.151642 61.185165,96.779518 61.056854,93.399635 
	C60.845943,87.843987 60.999691,82.274498 60.999691,76.583572 
	C76.796783,79.081688 84.706200,73.403534 87.885017,60.559792 
	C89.534676,53.894489 81.947273,42.365959 74.675941,40.908276 
	C63.430481,38.653900 54.402355,41.965046 50.166187,54.348095 
	C50.166187,69.322388 50.166187,84.296677 50.166187,99.270973 
	C50.512527,99.270317 50.858871,99.269661 51.205212,99.268997 
	C51.205212,84.513145 51.205212,69.757294 51.670837,55.681873 
M452.938477,16.205593 
	C452.932709,13.426510 452.926971,10.647427 452.506805,7.119427 
	C451.676086,7.079749 450.845337,7.005342 450.014618,7.005309 
	C320.064514,7.000096 190.114426,6.999607 60.164337,7.010290 
	C59.006847,7.010385 57.849373,7.163303 56.691891,7.244871 
	C56.703690,7.496536 56.715485,7.748201 56.727283,7.999866 
	C58.529175,7.999866 60.331066,7.999865 62.132957,7.999865 
	C189.750610,7.999865 317.368286,7.999343 444.985931,8.004640 
	C446.983398,8.004723 448.980835,8.076440 450.343750,8.643536 
	C448.361176,8.762314 446.378632,8.984801 444.396057,8.985059 
	C317.799896,9.001495 191.203751,8.999826 64.607590,9.000406 
	C63.108452,9.000413 61.408352,8.568009 60.165905,9.134894 
	C58.887630,9.718123 57.315922,11.186337 57.159012,12.429649 
	C56.542088,17.317911 60.441383,15.957667 62.934761,15.958593 
	C190.197205,16.005795 317.459656,15.995916 444.722107,16.036963 
	C446.807526,16.037636 448.892731,16.590231 450.048096,16.984041 
	C318.921753,16.984041 187.795410,16.984041 56.669075,16.984041 
	C56.668186,17.322649 56.667297,17.661259 56.666409,17.999866 
	C58.130753,17.999866 59.595100,17.999866 61.059448,17.999866 
	C190.163574,17.999866 319.267700,18.002838 448.371826,17.963892 
	C449.888428,17.963434 451.404907,17.421244 452.938477,16.205593 
M40.729980,18.841097 
	C44.774521,17.259153 44.448666,13.879510 43.877556,10.629433 
	C43.246861,7.040265 38.701454,4.892871 35.768032,6.073689 
	C30.897400,8.034311 31.546495,12.011154 32.232788,15.597117 
	C33.050861,19.871614 36.873112,18.923653 40.729980,18.841097 
M279.547150,36.032455 
	C275.059082,33.616341 270.093872,34.941669 270.147400,38.815651 
	C270.177917,41.025871 271.347321,44.246166 273.005066,45.126621 
	C274.747711,46.052143 278.226044,45.476963 279.975281,44.213593 
	C282.685669,42.256062 282.465240,39.168461 279.547150,36.032455 
M332.362549,47.999027 
	C327.964081,47.999027 323.565582,47.999027 318.999359,47.999027 
	C318.999359,49.876366 319.139465,51.048096 318.974792,52.175304 
	C318.311005,56.718830 320.039764,58.491138 324.739929,58.083275 
	C329.173370,57.698559 333.668091,57.921429 338.132294,58.027241 
	C340.828674,58.091148 342.157654,57.101940 342.016693,54.280735 
	C341.906921,52.084129 341.994720,49.877651 341.994720,47.999027 
	C338.438049,47.999027 335.874329,47.999027 332.362549,47.999027 
z"/>
<path fill="#1C1B17" opacity="1.000000" stroke="none" 
	d="
M452.921204,7.868344 
	C452.926971,10.647427 452.932709,13.426510 452.603943,16.635145 
	C451.838989,17.004889 451.408508,16.945082 450.978058,16.885273 
	C448.892731,16.590231 446.807526,16.037636 444.722107,16.036963 
	C317.459656,15.995916 190.197205,16.005795 62.934761,15.958593 
	C60.441383,15.957667 56.542088,17.317911 57.159012,12.429649 
	C57.315922,11.186337 58.887630,9.718123 60.165905,9.134894 
	C61.408352,8.568009 63.108452,9.000413 64.607590,9.000406 
	C191.203751,8.999826 317.799896,9.001495 444.396057,8.985059 
	C446.378632,8.984801 448.361176,8.762314 450.979065,8.300422 
	C452.049988,7.927653 452.485596,7.897999 452.921204,7.868344 
z"/>
<path fill="#010101" opacity="1.000000" stroke="none" 
	d="
M50.988331,54.037621 
	C54.402355,41.965046 63.430481,38.653900 74.675941,40.908276 
	C81.947273,42.365959 89.534676,53.894489 87.885017,60.559792 
	C84.706200,73.403534 76.796783,79.081688 60.999691,76.583572 
	C60.999691,82.274498 60.845943,87.843987 61.056854,93.399635 
	C61.185165,96.779518 60.185780,98.151642 56.581055,98.105377 
	C53.203163,98.062027 51.864697,97.158409 51.928738,93.569321 
	C52.121632,82.759361 52.012630,71.943710 51.982616,61.130379 
	C51.977577,59.313934 51.779644,57.498028 51.379974,55.101562 
	C51.089108,54.521255 50.988331,54.037621 50.988331,54.037621 
z"/>
<path fill="#13ADB6" opacity="1.000000" stroke="none" 
	d="
M263.832306,61.984108 
	C259.134644,75.527832 250.448990,80.978981 236.482773,77.680580 
	C232.572342,76.757050 228.686035,72.910545 226.181671,69.408653 
	C219.878540,60.594845 223.920410,44.617634 233.274780,41.068237 
	C239.148193,38.839645 245.458359,38.695843 252.028732,43.596172 
	C252.028732,38.233990 252.028732,33.581734 252.542389,28.466152 
	C256.326965,27.996622 259.597870,27.990417 262.939392,28.449196 
	C263.021484,39.550774 263.032928,50.187374 263.119080,61.052792 
	C263.329987,61.585438 263.542816,61.819603 263.832306,61.984108 
M251.941605,61.043152 
	C251.584946,58.972057 251.688690,56.664810 250.773361,54.880276 
	C249.005402,51.433422 245.980133,49.286831 241.889053,50.129597 
	C236.535538,51.232426 234.414612,54.744942 235.036057,60.815647 
	C235.460114,64.958176 237.844116,67.718178 241.882736,67.864777 
	C246.177338,68.020660 249.715897,65.927086 251.941605,61.043152 
z"/>
<path fill="#13ADB6" opacity="1.000000" stroke="none" 
	d="
M425.951477,41.887367 
	C439.096466,36.476059 450.502777,41.822208 452.941772,56.380005 
	C454.689148,66.809586 448.025879,75.070595 441.878662,76.955116 
	C429.209869,80.838936 414.246307,76.446266 412.955994,60.938110 
	C413.014404,49.373215 413.077637,38.680283 413.588928,27.992508 
	C415.185974,27.998566 416.354523,28.136673 417.480438,27.975937 
	C421.710144,27.372097 423.587585,28.885605 423.061096,33.367832 
	C422.737946,36.118885 422.913788,38.948387 423.105469,41.726112 
	C423.153320,42.419403 424.128326,43.048717 424.677216,43.707436 
	C425.101990,43.100750 425.526733,42.494061 425.951477,41.887367 
M435.415588,67.107613 
	C440.834381,64.525536 443.034332,60.946594 441.537109,57.094471 
	C439.011047,50.595467 435.332733,49.525284 431.280609,50.399364 
	C426.170898,51.501572 423.296082,55.875366 424.178833,60.467751 
	C425.192993,65.743935 428.915527,68.252144 435.415588,67.107613 
z"/>
<path fill="#13ADB6" opacity="1.000000" stroke="none" 
	d="
M394.880127,75.057220 
	C391.530426,76.037987 388.238129,77.357864 384.820343,77.936508 
	C374.203827,79.733917 368.030457,71.836708 366.281616,63.302372 
	C364.041412,52.370033 369.934814,41.766312 378.975891,40.357212 
	C392.514374,38.247169 402.538513,41.050781 406.397552,57.749695 
	C405.723328,61.762825 405.123413,65.279419 405.048920,68.807114 
	C404.887482,76.451263 403.942963,77.276367 396.279266,75.577072 
	C395.798126,75.470390 395.345825,75.233521 394.880127,75.057220 
M394.677307,56.216488 
	C394.069580,55.262802 393.625549,54.133221 392.824280,53.387508 
	C390.127380,50.877659 387.421967,49.420811 383.237030,50.730785 
	C378.880585,52.094433 377.686768,55.484863 377.226562,58.751068 
	C376.750122,62.132328 378.708313,65.254074 382.109100,67.030128 
	C388.214783,70.218781 394.659973,65.196350 394.677307,56.216488 
z"/>
<path fill="#12ADB6" opacity="1.000000" stroke="none" 
	d="
M204.889282,75.051125 
	C194.530594,81.329102 188.276764,79.656845 181.905609,73.231026 
	C173.213577,64.464462 175.225739,45.045109 188.152176,40.393356 
	C199.288345,36.385853 210.825058,41.706711 215.657776,54.008568 
	C215.228500,58.331600 215.031311,61.965679 215.016312,65.600502 
	C214.972275,76.278961 215.000595,76.279076 204.889282,75.051125 
M187.999130,58.668083 
	C187.671310,63.112877 189.352127,66.546082 193.723434,67.771393 
	C198.007156,68.972153 201.549561,67.119736 203.747772,63.364712 
	C205.798996,59.860729 205.864853,56.210361 202.934341,52.993099 
	C198.098083,47.683578 189.067520,49.723206 187.999130,58.668083 
z"/>
<path fill="#1C1B18" opacity="1.000000" stroke="none" 
	d="
M97.008049,61.011620 
	C95.666840,57.549637 94.325638,54.087646 93.116936,50.267189 
	C93.169464,49.943535 93.089478,49.978355 93.009499,50.013176 
	C92.148422,48.305935 90.998322,46.671398 90.543167,44.862041 
	C90.300621,43.897903 90.925171,42.173214 91.735168,41.581802 
	C95.021812,39.182095 100.978218,41.443455 102.336807,45.420776 
	C104.039101,50.404232 105.668510,55.413551 107.460533,60.364231 
	C107.698067,61.020428 108.706963,61.397400 109.745186,62.065720 
	C110.205612,62.272675 110.279472,62.317596 110.353333,62.362518 
	C110.231972,62.244446 110.110611,62.126369 109.989258,62.008293 
	C112.427864,55.172096 114.866478,48.335899 117.407845,41.211632 
	C120.228149,41.211632 123.651688,41.211632 127.625923,41.211632 
	C127.247505,43.499504 126.913788,45.517147 126.229820,47.647980 
	C125.802696,47.716114 125.725815,47.671055 125.648926,47.625999 
	C125.770210,47.747318 125.891502,47.868637 126.012787,47.989952 
	C125.197205,50.524517 124.381630,53.059090 123.222816,55.677414 
	C122.802696,55.716118 122.725807,55.671059 122.648926,55.625999 
	C122.770210,55.747318 122.891495,55.868637 123.012787,55.989952 
	C122.193367,58.490368 121.373962,60.990784 120.222900,63.617607 
	C119.809845,63.700634 119.728455,63.657253 119.647057,63.613873 
	C119.764198,63.742992 119.881332,63.872108 119.998474,64.001228 
	C119.855957,64.884247 119.713455,65.767258 119.220657,66.710464 
	C118.796051,66.725609 118.721733,66.680573 118.647415,66.635536 
	C118.768967,66.753922 118.890511,66.872307 119.012054,66.990692 
	C118.200462,69.503563 117.388870,72.016441 116.228424,74.645241 
	C115.802696,74.716110 115.725815,74.671059 115.648933,74.625999 
	C115.770218,74.747322 115.891502,74.868645 116.012787,74.989960 
	C115.945839,75.634323 115.903366,76.837677 115.808380,76.841835 
	C112.951088,76.966919 110.063789,76.747025 107.233315,77.057045 
	C103.804428,77.432617 102.071243,75.879997 101.165268,72.833694 
	C100.853767,71.786263 100.375122,70.788544 100.110382,69.338112 
	C100.168228,68.942932 100.088524,68.977760 100.008820,69.012581 
	C98.995415,66.587334 97.982002,64.162086 97.108337,61.322250 
	C97.168076,60.942307 97.088058,60.976963 97.008049,61.011620 
z"/>
<path fill="#010101" opacity="1.000000" stroke="none" 
	d="
M133.959763,69.970268 
	C132.124084,64.383469 129.389053,59.213943 131.565765,52.731781 
	C134.578110,43.761185 143.406189,38.125610 152.563156,40.736645 
	C156.207703,41.775860 159.923386,42.989399 163.166290,44.879269 
	C165.761063,46.391430 165.888428,48.702545 162.603226,50.371754 
	C160.623856,51.377468 158.903473,52.892910 157.063354,54.174622 
	C154.006073,49.590767 149.184082,47.903214 145.829437,50.239601 
	C139.912766,54.360359 138.370926,59.141724 141.704269,63.537292 
	C145.803665,68.943047 149.126556,69.475945 155.098740,66.105759 
	C156.258530,65.451286 158.191452,65.583916 159.559875,66.014351 
	C161.791840,66.716400 163.852707,67.962357 166.303406,69.130188 
	C161.212280,72.645485 157.931900,77.449005 150.582535,77.390541 
	C143.619186,77.335167 138.793396,75.311722 134.309937,70.168076 
	C133.996994,70.000992 133.959763,69.970268 133.959763,69.970268 
z"/>
<path fill="#14ADB6" opacity="1.000000" stroke="none" 
	d="
M303.834167,40.004059 
	C306.323059,40.494984 308.811951,40.985909 311.397003,41.495804 
	C312.782318,47.896782 312.764282,47.802223 305.912567,49.108887 
	C304.823547,49.316570 303.174347,50.793793 303.154541,51.713623 
	C303.032349,57.380302 303.303375,63.055466 303.457489,69.287666 
	C306.849091,68.781334 309.046387,68.453300 311.240540,68.131516 
	C313.550720,76.682350 312.570862,78.186920 303.986633,77.898582 
	C301.082336,77.801041 297.944855,77.018318 295.442169,75.609970 
	C294.062012,74.833305 293.184906,72.133621 293.106750,70.258133 
	C292.831360,63.650517 292.999664,57.024410 292.999664,50.250340 
	C291.068207,50.036003 289.495789,49.861507 287.643188,49.655918 
	C287.816895,46.830845 287.972168,44.305264 288.128662,41.760132 
	C289.349030,41.071003 290.568115,40.382595 292.277985,39.451088 
	C293.179688,37.007053 293.889343,34.811234 293.927124,32.603916 
	C293.976074,29.745577 294.254242,27.887020 297.919525,27.902859 
	C301.391663,27.917862 302.000183,29.406202 302.106201,32.440685 
	C302.194885,34.978832 303.222382,37.484184 303.834167,40.004059 
z"/>
<path fill="#A7A7A6" opacity="1.000000" stroke="none" 
	d="
M450.513062,16.934658 
	C451.408508,16.945082 451.838989,17.004889 452.595459,17.098312 
	C451.404907,17.421244 449.888428,17.963434 448.371826,17.963892 
	C319.267700,18.002838 190.163574,17.999866 61.059448,17.999866 
	C59.595100,17.999866 58.130753,17.999866 56.666409,17.999866 
	C56.667297,17.661259 56.668186,17.322649 56.669075,16.984041 
	C187.795410,16.984041 318.921753,16.984041 450.513062,16.934658 
z"/>
<path fill="#A7A7A6" opacity="1.000000" stroke="none" 
	d="
M452.713989,7.493886 
	C452.485596,7.897999 452.049988,7.927653 451.296326,8.036017 
	C448.980835,8.076440 446.983398,8.004723 444.985931,8.004640 
	C317.368286,7.999343 189.750610,7.999865 62.132957,7.999865 
	C60.331066,7.999865 58.529175,7.999866 56.727283,7.999866 
	C56.715485,7.748201 56.703690,7.496536 56.691891,7.244871 
	C57.849373,7.163303 59.006847,7.010385 60.164337,7.010290 
	C190.114426,6.999607 320.064514,7.000096 450.014618,7.005309 
	C450.845337,7.005342 451.676086,7.079749 452.713989,7.493886 
z"/>
<path fill="#1C1B17" opacity="1.000000" stroke="none" 
	d="
M32.131973,40.982876 
	C34.780502,40.996063 37.429035,41.009247 40.688183,41.250565 
	C41.818073,41.647461 42.337349,41.816231 42.932060,42.449230 
	C42.954655,53.949203 42.901814,64.984947 42.848976,76.020691 
	C39.573582,76.011292 36.298191,76.001892 32.492817,75.541710 
	C32.019218,63.721577 32.075596,52.352226 32.131973,40.982876 
z"/>
<path fill="#1C1B17" opacity="1.000000" stroke="none" 
	d="
M40.333786,18.905727 
	C36.873112,18.923653 33.050861,19.871614 32.232788,15.597117 
	C31.546495,12.011154 30.897400,8.034311 35.768032,6.073689 
	C38.701454,4.892871 43.246861,7.040265 43.877556,10.629433 
	C44.448666,13.879510 44.774521,17.259153 40.333786,18.905727 
z"/>
<path fill="#12ADB6" opacity="1.000000" stroke="none" 
	d="
M279.805359,36.304310 
	C282.465240,39.168461 282.685669,42.256062 279.975281,44.213593 
	C278.226044,45.476963 274.747711,46.052143 273.005066,45.126621 
	C271.347321,44.246166 270.177917,41.025871 270.147400,38.815651 
	C270.093872,34.941669 275.059082,33.616341 279.805359,36.304310 
z"/>
<path fill="#00AAB3" opacity="1.000000" stroke="none" 
	d="
M332.836578,47.999027 
	C335.874329,47.999027 338.438049,47.999027 341.994720,47.999027 
	C341.994720,49.877651 341.906921,52.084129 342.016693,54.280735 
	C342.157654,57.101940 340.828674,58.091148 338.132294,58.027241 
	C333.668091,57.921429 329.173370,57.698559 324.739929,58.083275 
	C320.039764,58.491138 318.311005,56.718830 318.974792,52.175304 
	C319.139465,51.048096 318.999359,49.876366 318.999359,47.999027 
	C323.565582,47.999027 327.964081,47.999027 332.836578,47.999027 
M329.530090,48.999996 
	C328.031708,49.000706 326.528931,49.074734 325.035889,48.985725 
	C322.508301,48.835037 320.941376,49.406513 320.941650,52.478180 
	C320.941925,55.506912 322.422302,56.102425 324.992096,56.026623 
	C328.817993,55.913769 332.652252,55.908428 336.477936,56.023487 
	C339.041199,56.100582 340.041687,55.080116 340.040283,52.507305 
	C340.038879,49.948372 339.068756,48.839973 336.492249,48.984276 
	C334.500793,49.095806 332.497833,49.002331 329.530090,48.999996 
z"/>
<path fill="#00AAB3" opacity="1.000000" stroke="none" 
	d="
M359.011932,77.836266 
	C355.949402,77.879601 352.886902,77.922935 349.383118,77.437759 
	C348.992676,60.318226 349.043488,43.727203 349.316650,27.097126 
	C349.538971,27.058071 349.984039,27.133577 349.990265,27.592802 
	C349.997650,41.003834 349.948975,53.955894 350.015564,66.907372 
	C350.070221,77.537003 348.753387,75.786781 358.920685,76.316513 
	C358.986176,77.023445 358.999054,77.429855 359.011932,77.836266 
z"/>
<path fill="#00A9B3" opacity="1.000000" stroke="none" 
	d="
M204.953522,75.450272 
	C215.000595,76.279076 214.972275,76.278961 215.016312,65.600502 
	C215.031311,61.965679 215.228500,58.331600 215.592041,54.373440 
	C216.198303,61.382938 216.592300,68.714928 216.838562,76.051865 
	C216.857666,76.621117 215.783371,77.774178 215.314011,77.725365 
	C211.843002,77.364372 207.763657,80.082893 204.953522,75.450272 
z"/>
<path fill="#BCE4E7" opacity="1.000000" stroke="none" 
	d="
M359.427643,77.707352 
	C358.999054,77.429855 358.986176,77.023445 358.989563,75.851059 
	C358.959656,59.378147 358.913483,43.671223 358.861328,27.724768 
	C358.676483,27.150562 358.403992,27.033030 357.594635,27.064392 
	C354.762299,27.041958 352.373169,27.087769 349.984039,27.133579 
	C349.984039,27.133577 349.538971,27.058071 349.085083,27.043798 
	C348.631165,27.029526 348.158081,26.984295 348.158081,26.984295 
	C351.889832,26.514919 355.621613,26.045544 359.843353,25.514538 
	C359.843353,43.281223 359.843353,60.429829 359.427643,77.707352 
z"/>
<path fill="#00A9B3" opacity="1.000000" stroke="none" 
	d="
M303.903198,39.545769 
	C303.222382,37.484184 302.194885,34.978832 302.106201,32.440685 
	C302.000183,29.406202 301.391663,27.917862 297.919525,27.902859 
	C294.254242,27.887020 293.976074,29.745577 293.927124,32.603916 
	C293.889343,34.811234 293.179688,37.007053 292.462585,39.111198 
	C292.156372,35.221947 292.156372,31.429483 292.156372,27.271578 
	C295.810028,27.069504 299.327240,26.874975 303.972260,26.618071 
	C303.972260,30.714369 303.972260,34.900921 303.903198,39.545769 
z"/>
<path fill="#00A9B3" opacity="1.000000" stroke="none" 
	d="
M394.934326,75.483200 
	C395.345825,75.233521 395.798126,75.470390 396.279266,75.577072 
	C403.942963,77.276367 404.887482,76.451263 405.048920,68.807114 
	C405.123413,65.279419 405.723328,61.762825 406.459595,58.119148 
	C406.889221,63.308689 406.852570,68.623436 407.035004,73.930649 
	C407.138184,76.932053 405.889801,78.635880 402.981506,77.898041 
	C400.323700,77.223732 396.629639,80.479851 394.934326,75.483200 
z"/>
<path fill="#5ABEC5" opacity="1.000000" stroke="none" 
	d="
M348.089600,27.448421 
	C348.158081,26.984295 348.631165,27.029526 348.862732,27.082851 
	C349.043488,43.727203 348.992676,60.318226 348.927795,77.366341 
	C348.608917,76.318123 348.045074,74.813812 348.039246,73.307343 
	C347.980713,58.175949 348.013824,43.044197 348.089600,27.448421 
z"/>
<path fill="#9A9A99" opacity="1.000000" stroke="none" 
	d="
M50.577259,54.192856 
	C50.988331,54.037621 51.089108,54.521255 51.147160,54.761353 
	C51.205212,69.757294 51.205212,84.513145 51.205212,99.268997 
	C50.858871,99.269661 50.512527,99.270317 50.166187,99.270973 
	C50.166187,84.296677 50.166187,69.322388 50.577259,54.192856 
z"/>
<path fill="#F1F1F1" opacity="1.000000" stroke="none" 
	d="
M43.054634,76.360306 
	C42.901814,64.984947 42.954655,53.949203 42.981583,42.195667 
	C42.674953,41.305775 42.394241,41.133678 42.113525,40.961582 
	C42.727730,40.949142 43.341938,40.936703 43.956142,40.924267 
	C43.724190,52.849483 43.492237,64.774704 43.054634,76.360306 
z"/>
<path fill="#F6F6F6" opacity="1.000000" stroke="none" 
	d="
M31.933777,40.639198 
	C32.075596,52.352226 32.019218,63.721577 32.047260,75.553925 
	C31.755436,75.806000 31.050732,75.596237 31.049984,75.383995 
	C31.009441,63.893303 31.024450,52.402382 31.069546,40.911629 
	C31.070356,40.705387 31.503933,40.500847 31.933777,40.639198 
z"/>
<path fill="#C5E8EB" opacity="1.000000" stroke="none" 
	d="
M263.044373,60.823971 
	C263.032928,50.187374 263.021484,39.550774 262.921295,28.185186 
	C262.541565,27.265467 262.250549,27.074739 261.959564,26.884007 
	C265.400635,24.685335 263.915070,28.087864 263.922913,28.855818 
	C264.029327,39.257362 263.987885,49.660419 263.708313,60.499527 
	C263.433655,60.935955 263.044342,60.823971 263.044373,60.823971 
z"/>
<path fill="#EBF8F9" opacity="1.000000" stroke="none" 
	d="
M413.140869,27.987352 
	C413.077637,38.680283 413.014404,49.373215 412.898438,60.532593 
	C412.563965,59.497307 412.051880,57.997620 412.038483,56.493496 
	C411.960815,47.767197 411.968140,39.039604 412.034729,30.313126 
	C412.044922,28.975655 412.511597,27.641666 412.907837,26.897717 
	C413.079315,27.655359 413.110077,27.821356 413.140869,27.987352 
z"/>
<path fill="#00A9B2" opacity="1.000000" stroke="none" 
	d="
M413.588928,27.992508 
	C413.110077,27.821356 413.079315,27.655359 413.109192,27.243664 
	C416.590881,26.997961 420.011902,26.997961 423.356018,26.997961 
	C423.966736,32.232723 424.531586,37.074646 425.523987,41.901970 
	C425.526733,42.494061 425.101990,43.100750 424.677216,43.707436 
	C424.128326,43.048717 423.153320,42.419403 423.105469,41.726112 
	C422.913788,38.948387 422.737946,36.118885 423.061096,33.367832 
	C423.587585,28.885605 421.710144,27.372097 417.480438,27.975937 
	C416.354523,28.136673 415.185974,27.998566 413.588928,27.992508 
z"/>
<path fill="#D6EEF0" opacity="1.000000" stroke="none" 
	d="
M279.970703,49.891548 
	C283.426849,47.671841 281.911133,51.114944 281.919250,51.853893 
	C282.009491,60.082623 281.928986,68.313217 281.451660,76.525208 
	C280.960938,76.342972 280.913147,76.178833 280.937714,75.549873 
	C280.961548,67.051811 280.913025,59.018581 280.860168,50.718945 
	C280.560791,50.265541 280.265747,50.078545 279.970703,49.891548 
z"/>
<path fill="#21B2BB" opacity="1.000000" stroke="none" 
	d="
M270.962708,77.821976 
	C270.641144,75.506424 270.068237,73.193352 270.045380,70.874847 
	C269.978485,64.090187 270.130707,57.303364 270.593994,50.551632 
	C270.990936,50.585873 271.002441,50.996872 271.001923,51.465839 
	C271.001770,59.957401 271.002106,67.979996 270.994568,76.305786 
	C270.978699,77.013313 270.970703,77.417648 270.962708,77.821976 
z"/>
<path fill="#00A8B2" opacity="1.000000" stroke="none" 
	d="
M271.409393,77.894104 
	C270.970703,77.417648 270.978699,77.013313 271.445068,76.304840 
	C274.890747,76.005363 277.878021,76.010033 280.865326,76.014702 
	C280.913147,76.178833 280.960938,76.342972 281.083954,76.752365 
	C278.058105,77.320496 274.957092,77.643372 271.409393,77.894104 
z"/>
<path fill="#00A8B2" opacity="1.000000" stroke="none" 
	d="
M261.517731,26.932083 
	C262.250549,27.074739 262.541565,27.265467 262.850647,27.720205 
	C259.597870,27.990417 256.326965,27.996622 252.611389,28.004787 
	C255.136429,27.664549 258.106171,27.322351 261.517731,26.932083 
z"/>
<path fill="#00A8B2" opacity="1.000000" stroke="none" 
	d="
M271.002441,50.996872 
	C271.002441,50.996872 270.990936,50.585873 270.982910,50.380539 
	C273.676697,50.111645 276.378479,50.048088 279.525482,49.938042 
	C280.265747,50.078545 280.560791,50.265541 280.415283,50.724670 
	C276.983978,50.996822 273.993225,50.996849 271.002441,50.996872 
z"/>
<path fill="#080704" opacity="1.000000" stroke="none" 
	d="
M41.826126,40.975464 
	C42.394241,41.133678 42.674953,41.305775 42.906147,41.731438 
	C42.337349,41.816231 41.818073,41.647461 41.131752,41.254452 
	C41.156044,41.016586 41.347382,41.002968 41.826126,40.975464 
z"/>
<path fill="#00A8B2" opacity="1.000000" stroke="none" 
	d="
M263.119080,61.052792 
	C263.044342,60.823971 263.433655,60.935955 263.634399,60.962288 
	C263.871277,61.154644 263.907349,61.320660 263.887878,61.735390 
	C263.542816,61.819603 263.329987,61.585438 263.119080,61.052792 
z"/>
<path fill="#010101" opacity="1.000000" stroke="none" 
	d="
M134.012634,70.019379 
	C133.928543,70.057343 133.828796,70.076927 133.844406,70.033386 
	C133.959763,69.970268 133.996994,70.000992 134.012634,70.019379 
z"/>
<path fill="#000000" opacity="1.000000" stroke="none" 
	d="
M251.806961,61.418423 
	C249.715897,65.927086 246.177338,68.020660 241.882736,67.864777 
	C237.844116,67.718178 235.460114,64.958176 235.036057,60.815647 
	C234.414612,54.744942 236.535538,51.232426 241.889053,50.129597 
	C245.980133,49.286831 249.005402,51.433422 250.773361,54.880276 
	C251.688690,56.664810 251.584946,58.972057 251.806961,61.418423 
z"/>
<path fill="#000000" opacity="1.000000" stroke="none" 
	d="
M435.115356,67.371033 
	C428.915527,68.252144 425.192993,65.743935 424.178833,60.467751 
	C423.296082,55.875366 426.170898,51.501572 431.280609,50.399364 
	C435.332733,49.525284 439.011047,50.595467 441.537109,57.094471 
	C443.034332,60.946594 440.834381,64.525536 435.115356,67.371033 
z"/>
<path fill="#000000" opacity="1.000000" stroke="none" 
	d="
M394.811218,56.594887 
	C394.659973,65.196350 388.214783,70.218781 382.109100,67.030128 
	C378.708313,65.254074 376.750122,62.132328 377.226562,58.751068 
	C377.686768,55.484863 378.880585,52.094433 383.237030,50.730785 
	C387.421967,49.420811 390.127380,50.877659 392.824280,53.387508 
	C393.625549,54.133221 394.069580,55.262802 394.811218,56.594887 
z"/>
<path fill="#000000" opacity="1.000000" stroke="none" 
	d="
M188.001892,58.256599 
	C189.067520,49.723206 198.098083,47.683578 202.934341,52.993099 
	C205.864853,56.210361 205.798996,59.860729 203.747772,63.364712 
	C201.549561,67.119736 198.007156,68.972153 193.723434,67.771393 
	C189.352127,66.546082 187.671310,63.112877 188.001892,58.256599 
z"/>
<path fill="#000000" opacity="1.000000" stroke="none" 
	d="
M93.004570,50.006512 
	C93.089478,49.978355 93.169464,49.943535 93.117905,49.949066 
	C92.986366,49.989422 92.999641,49.999847 93.004570,50.006512 
z"/>
<path fill="#000000" opacity="1.000000" stroke="none" 
	d="
M123.006615,55.994823 
	C122.891495,55.868637 122.770210,55.747318 122.648926,55.625999 
	C122.725807,55.671059 122.802696,55.716118 122.935516,55.886467 
	C122.991463,56.011757 123.000443,55.999691 123.006615,55.994823 
z"/>
<path fill="#000000" opacity="1.000000" stroke="none" 
	d="
M97.004051,61.005913 
	C97.088058,60.976963 97.168076,60.942307 97.118698,60.949745 
	C96.989319,60.991844 97.000053,61.000206 97.004051,61.005913 
z"/>
<path fill="#000000" opacity="1.000000" stroke="none" 
	d="
M109.994629,62.004074 
	C110.110611,62.126369 110.231972,62.244446 110.353333,62.362518 
	C110.279472,62.317596 110.205612,62.272675 110.069839,62.108070 
	C110.007927,61.988392 110.000000,61.999859 109.994629,62.004074 
z"/>
<path fill="#000000" opacity="1.000000" stroke="none" 
	d="
M119.999237,64.000610 
	C119.881332,63.872108 119.764198,63.742992 119.647057,63.613873 
	C119.728455,63.657253 119.809845,63.700634 119.946121,63.871361 
	C120.000999,63.998711 120.000000,64.000000 119.999237,64.000610 
z"/>
<path fill="#000000" opacity="1.000000" stroke="none" 
	d="
M119.006088,66.995384 
	C118.890511,66.872307 118.768967,66.753922 118.647415,66.635536 
	C118.721733,66.680573 118.796051,66.725609 118.930847,66.891602 
	C118.991325,67.012558 119.000130,67.000076 119.006088,66.995384 
z"/>
<path fill="#000000" opacity="1.000000" stroke="none" 
	d="
M100.004410,69.006348 
	C100.088524,68.977760 100.168228,68.942932 100.117996,68.949455 
	C99.988052,68.990799 100.000000,69.000114 100.004410,69.006348 
z"/>
<path fill="#000000" opacity="1.000000" stroke="none" 
	d="
M126.006615,47.994820 
	C125.891502,47.868637 125.770210,47.747318 125.648926,47.625999 
	C125.725815,47.671055 125.802696,47.716114 125.935516,47.886463 
	C125.991463,48.011757 126.000443,47.999691 126.006615,47.994820 
z"/>
<path fill="#000000" opacity="1.000000" stroke="none" 
	d="
M116.006615,74.994827 
	C115.891502,74.868645 115.770218,74.747322 115.648933,74.625999 
	C115.725815,74.671059 115.802696,74.716110 115.935516,74.886459 
	C115.991463,75.011757 116.000443,74.999702 116.006615,74.994827 
z"/>
<path fill="#13ADB6" opacity="1.000000" stroke="none" 
	d="
M330.015045,49.000000 
	C332.497833,49.002331 334.500793,49.095806 336.492249,48.984276 
	C339.068756,48.839973 340.038879,49.948372 340.040283,52.507305 
	C340.041687,55.080116 339.041199,56.100582 336.477936,56.023487 
	C332.652252,55.908428 328.817993,55.913769 324.992096,56.026623 
	C322.422302,56.102425 320.941925,55.506912 320.941650,52.478180 
	C320.941376,49.406513 322.508301,48.835037 325.035889,48.985725 
	C326.528931,49.074734 328.031708,49.000706 330.015045,49.000000 
z"/>
<path fill="#13ADB6" opacity="1.000000" stroke="none" 
	d="
M358.867340,27.964294 
	C358.913483,43.671223 358.959656,59.378147 358.936951,75.550537 
	C348.753387,75.786781 350.070221,77.537003 350.015564,66.907372 
	C349.948975,53.955894 349.997650,41.003834 349.990265,27.592804 
	C352.373169,27.087769 354.762299,27.041958 357.688721,27.242847 
	C358.392242,27.711998 358.606018,27.870247 358.867340,27.964294 
z"/>
<path fill="#00AAB3" opacity="1.000000" stroke="none" 
	d="
M358.861328,27.724768 
	C358.606018,27.870247 358.392242,27.711998 358.131927,27.311094 
	C358.403992,27.033030 358.676483,27.150562 358.861328,27.724768 
z"/>
<path fill="#13ADB6" opacity="1.000000" stroke="none" 
	d="
M271.001923,51.465839 
	C273.993225,50.996849 276.983978,50.996822 280.419617,50.991074 
	C280.913025,59.018581 280.961548,67.051811 280.937714,75.549873 
	C277.878021,76.010033 274.890747,76.005363 271.452942,76.001648 
	C271.002106,67.979996 271.001770,59.957401 271.001923,51.465839 
z"/>
</svg>