<svg version="1.1" id="Layer_1" xmlns="http://www.w3.org/2000/svg" xmlns:xlink="http://www.w3.org/1999/xlink" x="0px" y="0px"
	 width="100%" viewBox="0 0 2789 1004" enable-background="new 0 0 2789 1004" xml:space="preserve">
<path fill="#FFFFFF" opacity="1.000000" stroke="none" 
	d="
M2790.000000,784.000000 
	C2790.000000,857.652100 2790.000000,931.304138 2790.000000,1005.000000 
	C2170.303955,1005.000000 1550.607910,1005.000000 930.455933,1004.531372 
	C930.000000,715.821472 930.000000,427.580322 930.000000,139.000000 
	C619.898499,139.000000 310.449249,139.000000 1.000000,139.000000 
	C1.000000,93.010597 1.000000,47.021187 1.000000,1.000000 
	C551.029358,1.000000 1101.058716,1.000000 1651.385010,1.339921 
	C1643.340332,3.340323 1637.176270,8.192121 1633.825562,15.752752 
	C1626.281982,32.774303 1619.261230,50.027710 1612.037598,67.190910 
	C1604.433350,85.258797 1596.822144,103.323845 1589.247559,121.404144 
	C1581.799561,139.182053 1574.411743,156.985153 1566.960449,174.761719 
	C1563.837158,182.212738 1560.618774,189.623871 1557.286621,197.420670 
	C1556.196899,196.496338 1555.466797,196.068283 1554.992676,195.445465 
	C1549.978394,188.858093 1543.466431,185.920776 1535.087280,185.931381 
	C1447.267456,186.042480 1359.447388,185.995682 1271.627441,186.027969 
	C1269.682373,186.028687 1267.665405,186.188950 1265.804443,186.711502 
	C1253.856812,190.066635 1246.138428,202.040909 1248.074829,215.535126 
	C1249.886108,228.156891 1260.542114,236.998199 1273.528809,236.998642 
	C1353.516724,237.001358 1433.504639,237.041443 1513.492188,236.876968 
	C1517.470215,236.868790 1519.340210,238.205444 1520.921875,241.501099 
	C1525.682739,251.421280 1530.580322,261.278381 1535.582886,271.079224 
	C1540.600342,280.909180 1548.914429,286.219330 1559.793945,285.831421 
	C1570.588379,285.446564 1578.757568,280.036133 1583.078491,269.677368 
	C1586.032959,262.594208 1589.023438,255.526093 1592.006104,248.454742 
	C1599.562012,230.541199 1607.141724,212.637695 1614.675415,194.714905 
	C1622.145020,176.944824 1629.550537,159.147766 1637.024048,141.379379 
	C1640.389404,133.378113 1643.851807,125.417625 1647.542358,116.803391 
	C1648.190186,119.082542 1648.712891,120.471214 1648.974121,121.907433 
	C1652.393677,140.714615 1655.691895,159.544266 1659.194946,178.335815 
	C1662.007324,193.421814 1665.143677,208.447311 1667.978149,223.529373 
	C1671.478516,242.154373 1674.753418,260.821716 1678.240479,279.449280 
	C1681.755615,298.227112 1685.396973,316.981354 1689.008789,335.740967 
	C1692.280518,352.734283 1695.668335,369.705688 1698.853760,386.715088 
	C1701.681152,401.812958 1704.146851,416.979553 1707.071289,432.057831 
	C1708.769775,440.815125 1709.650269,449.823181 1717.546875,456.255249 
	C1724.786621,462.152496 1732.698608,463.270630 1741.124878,461.263000 
	C1750.419434,459.048462 1757.105713,453.215729 1758.926025,443.540375 
	C1761.947754,427.479828 1764.325806,411.299164 1767.077026,395.186523 
	C1770.322998,376.177612 1773.789429,357.205872 1776.954834,338.183838 
	C1780.445068,317.209137 1783.593506,296.177521 1787.088867,275.203674 
	C1791.465698,248.941391 1796.043945,222.712646 1800.614868,196.004791 
	C1815.274292,196.004791 1830.069214,195.908615 1844.858398,196.155594 
	C1846.316406,196.179932 1848.149048,198.035446 1849.117188,199.498093 
	C1865.369751,224.051697 1881.654419,248.586411 1897.619995,273.326630 
	C1905.762695,285.944427 1926.923706,287.947266 1937.480591,275.872925 
	C1946.116577,265.995483 1953.956787,255.426620 1962.360229,245.339630 
	C1966.119751,240.826630 1969.384521,236.688965 1977.000610,236.734085 
	C2051.486816,237.175415 2125.976562,237.070374 2200.464600,236.831619 
	C2205.117188,236.816696 2210.203857,235.179916 2214.320557,232.906937 
	C2223.468506,227.856171 2226.060059,219.288513 2226.170166,209.103134 
	C2226.291992,197.820068 2214.224609,185.886536 2203.243408,185.908707 
	C2120.423096,186.075974 2037.602051,185.986511 1954.781250,186.022095 
	C1947.004883,186.025436 1940.939941,189.689819 1936.124023,195.593338 
	C1931.094360,201.758987 1926.105835,207.958389 1920.868164,214.428482 
	C1917.634888,209.381500 1914.745361,204.842819 1911.827759,200.322342 
	C1902.783203,186.308609 1893.747314,172.289261 1884.669678,158.296967 
	C1879.068115,149.662979 1871.592651,144.024841 1860.840454,144.011536 
	C1833.177979,143.977325 1805.514160,143.849197 1777.853882,144.092743 
	C1769.632446,144.165100 1762.858521,147.969849 1757.812622,154.672348 
	C1752.379883,161.888428 1752.558228,170.650894 1751.060913,178.909164 
	C1748.727051,191.780670 1746.824097,204.729828 1744.675293,217.635513 
	C1742.151855,232.791748 1739.568237,247.937973 1736.996582,263.086151 
	C1735.666870,270.917847 1734.307007,278.744446 1732.746948,287.817383 
	C1730.319580,275.721039 1728.026978,265.023499 1726.045044,254.268723 
	C1721.899292,231.773148 1717.995361,209.232925 1713.840942,186.738968 
	C1711.024048,171.487411 1707.876099,156.297256 1705.009644,141.054565 
	C1701.537476,122.590805 1698.269775,104.088539 1694.793335,85.625610 
	C1691.953613,70.544113 1688.912354,55.500664 1686.010864,40.430668 
	C1684.867554,34.492893 1683.988525,28.502438 1682.764648,22.582407 
	C1680.385376,11.074698 1672.850220,4.415215 1662.000000,1.000000 
	C2037.908813,1.000000 2413.817627,1.000000 2790.000000,1.000000 
	C2790.000000,191.029297 2790.000000,381.058716 2789.592529,571.378601 
	C2789.195557,554.930359 2786.076660,538.779602 2779.979248,523.207581 
	C2773.058594,505.532410 2762.202637,490.880829 2746.551270,479.933014 
	C2720.498779,461.709808 2691.172852,458.911011 2660.982178,463.259949 
	C2639.253418,466.389893 2621.154297,477.899414 2605.548096,493.082855 
	C2600.219238,498.267426 2595.604492,504.185852 2589.990234,510.529510 
	C2589.990234,457.472504 2589.990234,405.430267 2589.990234,353.205170 
	C2559.858398,353.205170 2530.120850,353.205170 2500.203613,353.205170 
	C2500.203613,496.811493 2500.203613,640.212585 2500.203613,783.792969 
	C2530.145264,783.792969 2559.882812,783.792969 2590.000000,783.792969 
	C2590.000000,781.801392 2590.000000,780.010498 2590.000000,778.219604 
	C2590.000000,723.055054 2590.035156,667.890442 2589.970215,612.726013 
	C2589.957275,601.896606 2590.677490,591.300415 2593.850830,580.778687 
	C2597.963379,567.143433 2605.739014,556.683838 2618.208008,550.059753 
	C2630.102783,543.740601 2642.840088,542.894043 2656.134766,544.825073 
	C2666.683105,546.357239 2675.902344,550.518860 2683.067627,557.852783 
	C2694.608398,569.665588 2698.735107,585.063538 2698.842041,600.998901 
	C2699.238525,660.160645 2699.000000,719.326660 2699.000000,778.491028 
	C2699.000000,780.256470 2699.000000,782.021851 2699.000000,784.000000 
	C2729.714111,784.000000 2759.857178,784.000000 2790.000000,784.000000 
M1362.000000,538.500000 
	C1362.000000,482.740601 1362.000000,426.981232 1362.000000,371.287079 
	C1331.025269,371.287079 1300.621216,371.287079 1269.822144,371.287079 
	C1269.822144,425.643524 1269.822144,479.713928 1269.822144,533.712036 
	C1214.355103,533.712036 1159.285767,533.712036 1103.820435,533.712036 
	C1103.820435,479.354797 1103.820435,425.284393 1103.820435,371.290588 
	C1073.018188,371.290588 1042.614136,371.290588 1012.284912,371.290588 
	C1012.284912,508.979828 1012.284912,646.378357 1012.284912,783.712891 
	C1042.974854,783.712891 1073.378906,783.712891 1104.177979,783.712891 
	C1104.177979,728.689758 1104.177979,673.952759 1104.177979,619.287903 
	C1159.644897,619.287903 1214.714233,619.287903 1270.179443,619.287903 
	C1270.179443,674.311829 1270.179443,729.048889 1270.179443,783.709473 
	C1300.981567,783.709473 1331.385742,783.709473 1362.000000,783.709473 
	C1362.000000,702.112793 1362.000000,620.806396 1362.000000,538.500000 
M1509.030273,681.336609 
	C1505.920166,673.386108 1502.810181,665.435547 1499.403198,656.725891 
	C1573.751221,656.725891 1646.831177,656.725891 1719.501465,656.725891 
	C1720.037720,652.557434 1721.022095,648.810120 1720.909790,645.095947 
	C1720.445923,629.755920 1720.830078,614.254333 1718.633301,599.142029 
	C1716.567871,584.934509 1712.359497,570.906067 1707.817993,557.222351 
	C1701.124512,537.054260 1689.927368,519.259583 1675.265747,503.874298 
	C1661.657104,489.594025 1645.209961,479.440277 1626.974487,471.933624 
	C1607.386230,463.870117 1586.737183,462.102386 1565.984985,461.155457 
	C1559.202148,460.845978 1552.339355,462.354065 1545.509766,462.995392 
	C1530.946167,464.362976 1516.942871,468.187073 1503.711548,474.161255 
	C1482.713867,483.642090 1464.556396,497.007538 1449.527100,514.779236 
	C1436.402344,530.299011 1426.673462,547.623840 1420.120728,566.630737 
	C1411.984131,590.232117 1408.868530,614.523743 1410.781494,639.648376 
	C1412.134888,657.424500 1415.444946,674.508545 1421.576294,691.185181 
	C1428.006104,708.673523 1437.578125,724.303345 1449.834839,738.143616 
	C1460.160889,749.803650 1472.244507,759.447937 1485.768311,767.502686 
	C1510.516602,782.242737 1537.376099,789.274475 1565.787842,790.862976 
	C1575.323486,791.396057 1584.990112,790.775208 1594.520752,789.875610 
	C1604.026367,788.978394 1613.601074,787.740051 1622.853271,785.463257 
	C1640.742432,781.061157 1657.394653,773.529419 1672.485718,762.850281 
	C1684.852051,754.099182 1695.890259,743.907410 1705.458496,731.485596 
	C1702.885620,729.074402 1700.527100,726.723572 1698.022339,724.540283 
	C1685.423218,713.557495 1672.672363,702.745728 1660.208862,691.611877 
	C1653.732788,685.826721 1653.960938,685.593384 1647.463013,690.996826 
	C1646.475342,691.818054 1645.271484,692.383728 1644.305298,693.225586 
	C1619.751465,714.615051 1590.970337,721.941467 1559.395142,716.750000 
	C1537.732422,713.188354 1520.472900,701.646912 1509.030273,681.336609 
M1766.981445,747.470764 
	C1773.754517,754.557190 1779.707642,762.746033 1787.461792,768.513184 
	C1806.934448,782.995728 1829.692627,789.193176 1853.665283,789.770142 
	C1866.208252,790.072021 1878.943115,788.816528 1891.346802,786.777283 
	C1905.184448,784.502197 1918.379028,779.432068 1930.007690,771.359375 
	C1938.675293,765.342407 1946.775879,758.508789 1955.111938,752.052124 
	C1955.111938,762.245361 1955.111938,772.972351 1955.111938,783.758728 
	C1984.219727,783.758728 2012.954834,783.758728 2042.000000,783.758728 
	C2042.000000,781.722107 2042.000000,779.922791 2042.000000,778.123413 
	C2042.000000,717.300293 2042.028809,656.477051 2041.956177,595.654053 
	C2041.948730,589.403870 2041.371216,583.152283 2040.994385,576.905151 
	C2040.151978,562.937439 2036.979492,549.482727 2031.998169,536.430542 
	C2023.397827,513.896118 2009.191895,496.015045 1988.261841,483.714020 
	C1966.271362,470.789764 1941.958618,465.718109 1916.999756,464.242767 
	C1900.826416,463.286743 1884.513794,464.621704 1868.266479,465.038177 
	C1864.843262,465.125885 1861.376099,465.405884 1858.025513,466.077362 
	C1845.385010,468.610657 1832.589722,470.658356 1820.219360,474.177826 
	C1805.820557,478.274353 1791.806885,483.724030 1777.764160,488.539093 
	C1785.556763,512.441162 1792.951538,535.122620 1800.471802,558.189148 
	C1801.776001,557.897522 1803.042725,557.748840 1804.214355,557.332581 
	C1834.702271,546.502991 1865.796021,539.099609 1898.449829,542.141602 
	C1906.886597,542.927612 1915.543457,544.445496 1923.418213,547.426392 
	C1934.621094,551.666992 1943.606445,558.989563 1949.205688,570.361328 
	C1954.314209,580.736511 1955.445801,591.407715 1954.874268,602.695862 
	C1950.957031,601.457458 1947.172852,600.073792 1943.291138,599.066223 
	C1926.281006,594.651062 1909.153687,590.931458 1891.439575,590.994507 
	C1882.604980,591.025940 1873.747070,590.599976 1864.941528,591.106995 
	C1855.176514,591.669250 1845.272095,592.208130 1835.765503,594.293518 
	C1822.171143,597.275452 1808.908325,601.458740 1796.636475,608.620117 
	C1777.813721,619.604370 1763.662842,634.372192 1757.109497,655.369263 
	C1754.534546,663.618774 1752.880249,672.328918 1752.171387,680.941650 
	C1751.368652,690.693970 1751.187988,700.684570 1752.383179,710.368469 
	C1754.008911,723.542175 1759.307739,735.697693 1766.981445,747.470764 
M2415.202637,708.999939 
	C2411.204346,708.999939 2407.203125,708.901184 2403.208252,709.017151 
	C2385.770508,709.523193 2377.194336,697.868164 2377.099854,682.734497 
	C2376.820312,638.084900 2376.997803,593.432495 2377.013184,548.781189 
	C2377.013672,547.529236 2377.206543,546.277466 2377.339355,544.669739 
	C2402.133301,544.669739 2426.535156,544.669739 2450.643555,544.669739 
	C2450.643555,518.542847 2450.643555,492.808990 2450.643555,466.688599 
	C2425.885742,466.688599 2401.483887,466.688599 2376.697754,466.688599 
	C2376.697754,439.895905 2376.697754,413.494873 2376.697754,387.340179 
	C2346.239990,387.340179 2316.174316,387.340179 2285.721436,387.340179 
	C2285.721436,414.080383 2285.721436,440.481476 2285.721436,467.273010 
	C2273.258057,467.273010 2261.183594,467.273010 2249.330078,467.273010 
	C2249.330078,493.404144 2249.330078,519.137451 2249.330078,545.263123 
	C2261.731934,545.263123 2273.806396,545.263123 2286.000000,545.263123 
	C2286.000000,589.134583 2286.059326,632.609375 2285.971436,676.083801 
	C2285.934814,694.182251 2285.969971,712.301575 2290.106201,730.010498 
	C2293.133057,742.969238 2298.399658,755.084595 2307.586182,765.072632 
	C2323.125977,781.968445 2343.605469,787.649597 2365.363770,788.746094 
	C2379.120605,789.439331 2393.081543,788.370422 2406.804199,786.805115 
	C2420.928955,785.193848 2434.147217,780.008423 2446.613037,773.018860 
	C2449.300293,771.512268 2450.083496,769.765320 2450.066650,766.798401 
	C2449.943115,745.139832 2450.002930,723.480347 2449.992188,701.821106 
	C2449.991699,700.590698 2449.879639,699.360291 2449.786133,697.445374 
	C2438.969971,703.889587 2427.771484,707.109619 2415.202637,708.999939 
M2106.000000,677.500000 
	C2106.000000,712.927856 2106.000000,748.355774 2106.000000,783.709839 
	C2136.646729,783.709839 2166.718018,783.709839 2196.712891,783.709839 
	C2196.712891,640.019348 2196.712891,496.619202 2196.712891,353.290100 
	C2166.353271,353.290100 2136.281982,353.290100 2106.000000,353.290100 
	C2106.000000,461.220032 2106.000000,568.860046 2106.000000,677.500000 
z"/>
<path fill="#A54A96" opacity="1.000000" stroke="none" 
	d="
M1.000000,139.468658 
	C310.449249,139.000000 619.898499,139.000000 930.000000,139.000000 
	C930.000000,427.580322 930.000000,715.821472 930.000000,1004.531372 
	C620.408813,1005.000000 310.817566,1005.000000 1.000000,1005.000000 
	C1.000000,716.645813 1.000000,428.291565 1.000000,139.468658 
M617.068237,458.030701 
	C588.254395,458.020477 559.440613,457.993774 530.626831,458.045715 
	C529.084045,458.048492 527.542419,458.713837 526.000000,459.000000 
	C526.000000,459.000000 526.070801,459.000305 525.427185,459.546967 
	C525.284790,461.022278 525.018005,462.497589 525.017700,463.972931 
	C524.998230,569.598816 524.994812,675.224731 525.046265,780.850647 
	C525.047119,782.545715 525.741943,784.240356 527.034668,785.988464 
	C557.318848,785.970703 587.603027,785.952942 618.555786,785.433716 
	C618.703857,783.962219 618.980896,782.490845 618.981445,781.019287 
	C619.003235,721.605530 619.006348,662.191711 618.965027,602.777954 
	C618.963928,601.191162 618.444763,599.604675 618.031250,597.168701 
	C618.705383,592.484863 619.130554,587.749023 620.096375,583.126160 
	C624.479614,562.147034 635.026367,546.134949 656.499573,539.442810 
	C667.268982,536.086487 678.311462,536.186279 689.358582,538.005859 
	C701.227356,539.960815 711.239502,545.230225 718.839111,554.735168 
	C728.712158,567.083435 731.814758,581.552429 732.020325,597.862610 
	C732.013550,658.858032 731.997864,719.853516 732.046753,780.848877 
	C732.048096,782.544617 732.741943,784.239746 734.034790,785.988464 
	C764.318909,785.970764 794.603027,785.953064 825.555786,785.433960 
	C825.703857,783.961792 825.980957,782.489685 825.981445,781.017456 
	C826.002625,710.255737 826.005615,639.494019 825.964172,568.732300 
	C825.963196,567.144592 825.427246,565.557068 825.031311,563.088135 
	C823.357666,552.212830 822.581787,541.105408 819.840637,530.506165 
	C811.891785,499.769806 794.532532,476.111633 765.069824,462.659363 
	C743.389221,452.760284 720.451416,451.183990 697.102478,453.968842 
	C678.211060,456.222015 661.171814,463.429962 646.840149,475.828705 
	C637.220337,484.151123 628.780945,493.837982 619.281311,502.298187 
	C619.186707,489.268646 619.127075,476.238647 618.955200,463.210114 
	C618.932617,461.498779 618.335510,459.795044 617.068237,458.030701 
M315.413055,358.288971 
	C314.592072,358.192963 313.771118,358.013031 312.950104,358.012848 
	C248.014297,357.999573 183.078491,357.993622 118.142723,358.046417 
	C116.795998,358.047516 115.449821,358.740936 114.018318,360.031189 
	C114.018318,501.880951 114.018318,643.730713 114.018318,785.960266 
	C145.666397,785.960266 176.774155,785.960266 208.538055,785.437927 
	C208.692047,783.470764 208.979126,781.503662 208.980377,779.536438 
	C209.006363,738.464600 209.080124,697.392395 208.893539,656.321411 
	C208.871475,651.462769 209.823044,649.786804 215.112778,649.858826 
	C237.556030,650.164551 260.006409,649.946411 282.917725,650.367859 
	C289.550964,660.235840 296.190826,670.099365 302.816223,679.972595 
	C325.660583,714.015320 348.533020,748.039307 371.279663,782.147156 
	C373.144989,784.944214 375.057098,786.097473 378.495850,786.083191 
	C411.822021,785.944641 445.149017,786.003174 478.475769,785.988708 
	C479.858398,785.988098 481.240936,785.822083 483.292358,785.690125 
	C448.354736,734.601929 413.832245,684.120789 379.093933,633.324036 
	C381.216400,632.429993 382.870453,631.713257 384.539398,631.033203 
	C408.204681,621.390747 428.508606,607.223938 444.177734,586.796753 
	C463.543182,561.550842 470.329803,532.223755 470.757477,501.259094 
	C470.921844,489.358124 468.819672,477.344696 466.930908,465.513275 
	C462.889496,440.196930 450.988708,418.701874 432.947723,400.758575 
	C419.378204,387.262512 403.192749,377.547211 385.203033,370.964386 
	C362.879730,362.795746 339.758484,359.073547 315.413055,358.288971 
z"/>
<path fill="#A54A96" opacity="1.000000" stroke="none" 
	d="
M1661.545898,1.000000 
	C1672.850220,4.415215 1680.385376,11.074698 1682.764648,22.582407 
	C1683.988525,28.502438 1684.867554,34.492893 1686.010864,40.430668 
	C1688.912354,55.500664 1691.953613,70.544113 1694.793335,85.625610 
	C1698.269775,104.088539 1701.537476,122.590805 1705.009644,141.054565 
	C1707.876099,156.297256 1711.024048,171.487411 1713.840942,186.738968 
	C1717.995361,209.232925 1721.899292,231.773148 1726.045044,254.268723 
	C1728.026978,265.023499 1730.319580,275.721039 1732.746948,287.817383 
	C1734.307007,278.744446 1735.666870,270.917847 1736.996582,263.086151 
	C1739.568237,247.937973 1742.151855,232.791748 1744.675293,217.635513 
	C1746.824097,204.729828 1748.727051,191.780670 1751.060913,178.909164 
	C1752.558228,170.650894 1752.379883,161.888428 1757.812622,154.672348 
	C1762.858521,147.969849 1769.632446,144.165100 1777.853882,144.092743 
	C1805.514160,143.849197 1833.177979,143.977325 1860.840454,144.011536 
	C1871.592651,144.024841 1879.068115,149.662979 1884.669678,158.296967 
	C1893.747314,172.289261 1902.783203,186.308609 1911.827759,200.322342 
	C1914.745361,204.842819 1917.634888,209.381500 1920.868164,214.428482 
	C1926.105835,207.958389 1931.094360,201.758987 1936.124023,195.593338 
	C1940.939941,189.689819 1947.004883,186.025436 1954.781250,186.022095 
	C2037.602051,185.986511 2120.423096,186.075974 2203.243408,185.908707 
	C2214.224609,185.886536 2226.291992,197.820068 2226.170166,209.103134 
	C2226.060059,219.288513 2223.468506,227.856171 2214.320557,232.906937 
	C2210.203857,235.179916 2205.117188,236.816696 2200.464600,236.831619 
	C2125.976562,237.070374 2051.486816,237.175415 1977.000610,236.734085 
	C1969.384521,236.688965 1966.119751,240.826630 1962.360229,245.339630 
	C1953.956787,255.426620 1946.116577,265.995483 1937.480591,275.872925 
	C1926.923706,287.947266 1905.762695,285.944427 1897.619995,273.326630 
	C1881.654419,248.586411 1865.369751,224.051697 1849.117188,199.498093 
	C1848.149048,198.035446 1846.316406,196.179932 1844.858398,196.155594 
	C1830.069214,195.908615 1815.274292,196.004791 1800.614868,196.004791 
	C1796.043945,222.712646 1791.465698,248.941391 1787.088867,275.203674 
	C1783.593506,296.177521 1780.445068,317.209137 1776.954834,338.183838 
	C1773.789429,357.205872 1770.322998,376.177612 1767.077026,395.186523 
	C1764.325806,411.299164 1761.947754,427.479828 1758.926025,443.540375 
	C1757.105713,453.215729 1750.419434,459.048462 1741.124878,461.263000 
	C1732.698608,463.270630 1724.786621,462.152496 1717.546875,456.255249 
	C1709.650269,449.823181 1708.769775,440.815125 1707.071289,432.057831 
	C1704.146851,416.979553 1701.681152,401.812958 1698.853760,386.715088 
	C1695.668335,369.705688 1692.280518,352.734283 1689.008789,335.740967 
	C1685.396973,316.981354 1681.755615,298.227112 1678.240479,279.449280 
	C1674.753418,260.821716 1671.478516,242.154373 1667.978149,223.529373 
	C1665.143677,208.447311 1662.007324,193.421814 1659.194946,178.335815 
	C1655.691895,159.544266 1652.393677,140.714615 1648.974121,121.907433 
	C1648.712891,120.471214 1648.190186,119.082542 1647.542358,116.803391 
	C1643.851807,125.417625 1640.389404,133.378113 1637.024048,141.379379 
	C1629.550537,159.147766 1622.145020,176.944824 1614.675415,194.714905 
	C1607.141724,212.637695 1599.562012,230.541199 1592.006104,248.454742 
	C1589.023438,255.526093 1586.032959,262.594208 1583.078491,269.677368 
	C1578.757568,280.036133 1570.588379,285.446564 1559.793945,285.831421 
	C1548.914429,286.219330 1540.600342,280.909180 1535.582886,271.079224 
	C1530.580322,261.278381 1525.682739,251.421280 1520.921875,241.501099 
	C1519.340210,238.205444 1517.470215,236.868790 1513.492188,236.876968 
	C1433.504639,237.041443 1353.516724,237.001358 1273.528809,236.998642 
	C1260.542114,236.998199 1249.886108,228.156891 1248.074829,215.535126 
	C1246.138428,202.040909 1253.856812,190.066635 1265.804443,186.711502 
	C1267.665405,186.188950 1269.682373,186.028687 1271.627441,186.027969 
	C1359.447388,185.995682 1447.267456,186.042480 1535.087280,185.931381 
	C1543.466431,185.920776 1549.978394,188.858093 1554.992676,195.445465 
	C1555.466797,196.068283 1556.196899,196.496338 1557.286621,197.420670 
	C1560.618774,189.623871 1563.837158,182.212738 1566.960449,174.761719 
	C1574.411743,156.985153 1581.799561,139.182053 1589.247559,121.404144 
	C1596.822144,103.323845 1604.433350,85.258797 1612.037598,67.190910 
	C1619.261230,50.027710 1626.281982,32.774303 1633.825562,15.752752 
	C1637.176270,8.192121 1643.340332,3.340323 1651.840820,1.339921 
	C1655.030640,1.000000 1658.061157,1.000000 1661.545898,1.000000 
z"/>
<path fill="#000000" opacity="1.000000" stroke="none" 
	d="
M2790.000000,783.531372 
	C2759.857178,784.000000 2729.714111,784.000000 2699.000000,784.000000 
	C2699.000000,782.021851 2699.000000,780.256470 2699.000000,778.491028 
	C2699.000000,719.326660 2699.238525,660.160645 2698.842041,600.998901 
	C2698.735107,585.063538 2694.608398,569.665588 2683.067627,557.852783 
	C2675.902344,550.518860 2666.683105,546.357239 2656.134766,544.825073 
	C2642.840088,542.894043 2630.102783,543.740601 2618.208008,550.059753 
	C2605.739014,556.683838 2597.963379,567.143433 2593.850830,580.778687 
	C2590.677490,591.300415 2589.957275,601.896606 2589.970215,612.726013 
	C2590.035156,667.890442 2590.000000,723.055054 2590.000000,778.219604 
	C2590.000000,780.010498 2590.000000,781.801392 2590.000000,783.792969 
	C2559.882812,783.792969 2530.145264,783.792969 2500.203613,783.792969 
	C2500.203613,640.212585 2500.203613,496.811493 2500.203613,353.205170 
	C2530.120850,353.205170 2559.858398,353.205170 2589.990234,353.205170 
	C2589.990234,405.430267 2589.990234,457.472504 2589.990234,510.529510 
	C2595.604492,504.185852 2600.219238,498.267426 2605.548096,493.082855 
	C2621.154297,477.899414 2639.253418,466.389893 2660.982178,463.259949 
	C2691.172852,458.911011 2720.498779,461.709808 2746.551270,479.933014 
	C2762.202637,490.880829 2773.058594,505.532410 2779.979248,523.207581 
	C2786.076660,538.779602 2789.195557,554.930359 2789.592529,571.834534 
	C2790.000000,642.354248 2790.000000,712.708435 2790.000000,783.531372 
z"/>
<path fill="#000000" opacity="1.000000" stroke="none" 
	d="
M1362.000000,539.000000 
	C1362.000000,620.806396 1362.000000,702.112793 1362.000000,783.709473 
	C1331.385742,783.709473 1300.981567,783.709473 1270.179443,783.709473 
	C1270.179443,729.048889 1270.179443,674.311829 1270.179443,619.287903 
	C1214.714233,619.287903 1159.644897,619.287903 1104.177979,619.287903 
	C1104.177979,673.952759 1104.177979,728.689758 1104.177979,783.712891 
	C1073.378906,783.712891 1042.974854,783.712891 1012.284912,783.712891 
	C1012.284912,646.378357 1012.284912,508.979828 1012.284912,371.290588 
	C1042.614136,371.290588 1073.018188,371.290588 1103.820435,371.290588 
	C1103.820435,425.284393 1103.820435,479.354797 1103.820435,533.712036 
	C1159.285767,533.712036 1214.355103,533.712036 1269.822144,533.712036 
	C1269.822144,479.713928 1269.822144,425.643524 1269.822144,371.287079 
	C1300.621216,371.287079 1331.025269,371.287079 1362.000000,371.287079 
	C1362.000000,426.981232 1362.000000,482.740601 1362.000000,539.000000 
z"/>
<path fill="#000000" opacity="1.000000" stroke="none" 
	d="
M1509.244385,681.652771 
	C1520.472900,701.646912 1537.732422,713.188354 1559.395142,716.750000 
	C1590.970337,721.941467 1619.751465,714.615051 1644.305298,693.225586 
	C1645.271484,692.383728 1646.475342,691.818054 1647.463013,690.996826 
	C1653.960938,685.593384 1653.732788,685.826721 1660.208862,691.611877 
	C1672.672363,702.745728 1685.423218,713.557495 1698.022339,724.540283 
	C1700.527100,726.723572 1702.885620,729.074402 1705.458496,731.485596 
	C1695.890259,743.907410 1684.852051,754.099182 1672.485718,762.850281 
	C1657.394653,773.529419 1640.742432,781.061157 1622.853271,785.463257 
	C1613.601074,787.740051 1604.026367,788.978394 1594.520752,789.875610 
	C1584.990112,790.775208 1575.323486,791.396057 1565.787842,790.862976 
	C1537.376099,789.274475 1510.516602,782.242737 1485.768311,767.502686 
	C1472.244507,759.447937 1460.160889,749.803650 1449.834839,738.143616 
	C1437.578125,724.303345 1428.006104,708.673523 1421.576294,691.185181 
	C1415.444946,674.508545 1412.134888,657.424500 1410.781494,639.648376 
	C1408.868530,614.523743 1411.984131,590.232117 1420.120728,566.630737 
	C1426.673462,547.623840 1436.402344,530.299011 1449.527100,514.779236 
	C1464.556396,497.007538 1482.713867,483.642090 1503.711548,474.161255 
	C1516.942871,468.187073 1530.946167,464.362976 1545.509766,462.995392 
	C1552.339355,462.354065 1559.202148,460.845978 1565.984985,461.155457 
	C1586.737183,462.102386 1607.386230,463.870117 1626.974487,471.933624 
	C1645.209961,479.440277 1661.657104,489.594025 1675.265747,503.874298 
	C1689.927368,519.259583 1701.124512,537.054260 1707.817993,557.222351 
	C1712.359497,570.906067 1716.567871,584.934509 1718.633301,599.142029 
	C1720.830078,614.254333 1720.445923,629.755920 1720.909790,645.095947 
	C1721.022095,648.810120 1720.037720,652.557434 1719.501465,656.725891 
	C1646.831177,656.725891 1573.751221,656.725891 1499.403198,656.725891 
	C1502.810181,665.435547 1505.920166,673.386108 1509.244385,681.652771 
M1576.317139,535.000122 
	C1568.083984,535.334656 1559.634766,534.611206 1551.665649,536.238403 
	C1537.857422,539.057800 1526.442993,546.310181 1517.553101,557.732849 
	C1507.791138,570.276489 1502.344727,584.429749 1499.332520,599.823181 
	C1543.816895,599.823181 1588.225098,599.823181 1633.383423,599.823181 
	C1630.846191,591.468079 1628.771240,583.361084 1625.919556,575.537292 
	C1621.406372,563.154480 1613.487915,553.199829 1602.879028,545.340820 
	C1595.199707,539.651978 1586.430054,536.810425 1576.317139,535.000122 
z"/>
<path fill="#000000" opacity="1.000000" stroke="none" 
	d="
M1766.713379,747.213379 
	C1759.307739,735.697693 1754.008911,723.542175 1752.383179,710.368469 
	C1751.187988,700.684570 1751.368652,690.693970 1752.171387,680.941650 
	C1752.880249,672.328918 1754.534546,663.618774 1757.109497,655.369263 
	C1763.662842,634.372192 1777.813721,619.604370 1796.636475,608.620117 
	C1808.908325,601.458740 1822.171143,597.275452 1835.765503,594.293518 
	C1845.272095,592.208130 1855.176514,591.669250 1864.941528,591.106995 
	C1873.747070,590.599976 1882.604980,591.025940 1891.439575,590.994507 
	C1909.153687,590.931458 1926.281006,594.651062 1943.291138,599.066223 
	C1947.172852,600.073792 1950.957031,601.457458 1954.874268,602.695862 
	C1955.445801,591.407715 1954.314209,580.736511 1949.205688,570.361328 
	C1943.606445,558.989563 1934.621094,551.666992 1923.418213,547.426392 
	C1915.543457,544.445496 1906.886597,542.927612 1898.449829,542.141602 
	C1865.796021,539.099609 1834.702271,546.502991 1804.214355,557.332581 
	C1803.042725,557.748840 1801.776001,557.897522 1800.471802,558.189148 
	C1792.951538,535.122620 1785.556763,512.441162 1777.764160,488.539093 
	C1791.806885,483.724030 1805.820557,478.274353 1820.219360,474.177826 
	C1832.589722,470.658356 1845.385010,468.610657 1858.025513,466.077362 
	C1861.376099,465.405884 1864.843262,465.125885 1868.266479,465.038177 
	C1884.513794,464.621704 1900.826416,463.286743 1916.999756,464.242767 
	C1941.958618,465.718109 1966.271362,470.789764 1988.261841,483.714020 
	C2009.191895,496.015045 2023.397827,513.896118 2031.998169,536.430542 
	C2036.979492,549.482727 2040.151978,562.937439 2040.994385,576.905151 
	C2041.371216,583.152283 2041.948730,589.403870 2041.956177,595.654053 
	C2042.028809,656.477051 2042.000000,717.300293 2042.000000,778.123413 
	C2042.000000,779.922791 2042.000000,781.722107 2042.000000,783.758728 
	C2012.954834,783.758728 1984.219727,783.758728 1955.111938,783.758728 
	C1955.111938,772.972351 1955.111938,762.245361 1955.111938,752.052124 
	C1946.775879,758.508789 1938.675293,765.342407 1930.007690,771.359375 
	C1918.379028,779.432068 1905.184448,784.502197 1891.346802,786.777283 
	C1878.943115,788.816528 1866.208252,790.072021 1853.665283,789.770142 
	C1829.692627,789.193176 1806.934448,782.995728 1787.461792,768.513184 
	C1779.707642,762.746033 1773.754517,754.557190 1766.713379,747.213379 
M1848.994019,661.510681 
	C1840.604004,670.208374 1838.350952,680.817200 1838.939209,692.501343 
	C1839.370972,701.073792 1842.987671,708.324341 1848.765137,714.002136 
	C1857.630127,722.714233 1869.244385,726.047485 1881.342285,726.899414 
	C1894.782837,727.845947 1907.977173,726.096008 1920.602051,721.003296 
	C1934.098389,715.559204 1944.952881,707.210571 1951.640625,693.897400 
	C1957.220337,682.790161 1957.179199,670.916931 1956.875488,659.001099 
	C1956.845947,657.845459 1955.322144,656.208740 1954.107422,655.681396 
	C1938.979614,649.113586 1922.984985,645.892700 1906.641724,645.187988 
	C1897.698853,644.802307 1888.644409,646.071594 1879.692383,647.064392 
	C1868.155273,648.343872 1858.078125,653.129211 1848.994019,661.510681 
z"/>
<path fill="#000000" opacity="1.000000" stroke="none" 
	d="
M2415.670898,708.999023 
	C2427.771484,707.109619 2438.969971,703.889587 2449.786133,697.445374 
	C2449.879639,699.360291 2449.991699,700.590698 2449.992188,701.821106 
	C2450.002930,723.480347 2449.943115,745.139832 2450.066650,766.798401 
	C2450.083496,769.765320 2449.300293,771.512268 2446.613037,773.018860 
	C2434.147217,780.008423 2420.928955,785.193848 2406.804199,786.805115 
	C2393.081543,788.370422 2379.120605,789.439331 2365.363770,788.746094 
	C2343.605469,787.649597 2323.125977,781.968445 2307.586182,765.072632 
	C2298.399658,755.084595 2293.133057,742.969238 2290.106201,730.010498 
	C2285.969971,712.301575 2285.934814,694.182251 2285.971436,676.083801 
	C2286.059326,632.609375 2286.000000,589.134583 2286.000000,545.263123 
	C2273.806396,545.263123 2261.731934,545.263123 2249.330078,545.263123 
	C2249.330078,519.137451 2249.330078,493.404144 2249.330078,467.273010 
	C2261.183594,467.273010 2273.258057,467.273010 2285.721436,467.273010 
	C2285.721436,440.481476 2285.721436,414.080383 2285.721436,387.340179 
	C2316.174316,387.340179 2346.239990,387.340179 2376.697754,387.340179 
	C2376.697754,413.494873 2376.697754,439.895905 2376.697754,466.688599 
	C2401.483887,466.688599 2425.885742,466.688599 2450.643555,466.688599 
	C2450.643555,492.808990 2450.643555,518.542847 2450.643555,544.669739 
	C2426.535156,544.669739 2402.133301,544.669739 2377.339355,544.669739 
	C2377.206543,546.277466 2377.013672,547.529236 2377.013184,548.781189 
	C2376.997803,593.432495 2376.820312,638.084900 2377.099854,682.734497 
	C2377.194336,697.868164 2385.770508,709.523193 2403.208252,709.017151 
	C2407.203125,708.901184 2411.204346,708.999939 2415.670898,708.999023 
z"/>
<path fill="#000000" opacity="1.000000" stroke="none" 
	d="
M2106.000000,677.000000 
	C2106.000000,568.860046 2106.000000,461.220032 2106.000000,353.290100 
	C2136.281982,353.290100 2166.353271,353.290100 2196.712891,353.290100 
	C2196.712891,496.619202 2196.712891,640.019348 2196.712891,783.709839 
	C2166.718018,783.709839 2136.646729,783.709839 2106.000000,783.709839 
	C2106.000000,748.355774 2106.000000,712.927856 2106.000000,677.000000 
z"/>
<path fill="#000000" opacity="1.000000" stroke="none" 
	d="
M207.881897,785.960266 
	C176.774155,785.960266 145.666397,785.960266 114.018318,785.960266 
	C114.018318,643.730713 114.018318,501.880951 114.519669,359.529846 
	C170.721512,359.019012 226.422012,359.017517 282.122498,358.993347 
	C293.426453,358.988434 304.730316,358.897919 316.034241,358.846893 
	C339.758484,359.073547 362.879730,362.795746 385.203033,370.964386 
	C403.192749,377.547211 419.378204,387.262512 432.947723,400.758575 
	C450.988708,418.701874 462.889496,440.196930 466.930908,465.513275 
	C468.819672,477.344696 470.921844,489.358124 470.757477,501.259094 
	C470.329803,532.223755 463.543182,561.550842 444.177734,586.796753 
	C428.508606,607.223938 408.204681,621.390747 384.539398,631.033203 
	C382.870453,631.713257 381.216400,632.429993 379.093933,633.324036 
	C413.832245,684.120789 448.354736,734.601929 483.292358,785.690125 
	C481.240936,785.822083 479.858398,785.988098 478.475769,785.988708 
	C445.149017,786.003174 411.822021,785.944641 378.495850,786.083191 
	C375.057098,786.097473 373.144989,784.944214 371.279663,782.147156 
	C348.533020,748.039307 325.660583,714.015320 302.816223,679.972595 
	C296.190826,670.099365 289.550964,660.235840 282.357910,649.818848 
	C257.528198,649.233215 233.258286,649.194763 208.988342,649.185791 
	C208.738113,649.185730 208.487732,649.573303 208.000000,649.975952 
	C208.000000,651.767151 208.001556,653.751221 207.999771,655.735229 
	C207.960693,699.143555 207.921280,742.551941 207.881897,785.960266 
M208.035538,444.953094 
	C208.023743,483.927521 208.002151,522.901917 208.042343,561.876282 
	C208.043716,563.195801 208.667267,564.514587 209.929092,565.969971 
	C240.391312,565.979980 270.854553,566.131470 301.315033,565.906250 
	C309.521729,565.845642 317.885925,565.448608 325.889618,563.803711 
	C346.407257,559.587036 362.710052,549.309570 371.237244,529.140808 
	C375.518311,519.015198 375.423370,508.350861 374.972687,497.681824 
	C374.431519,484.870605 370.252869,473.382416 361.377258,463.972809 
	C348.058624,449.852905 330.800995,445.115417 311.506042,443.362518 
	C310.680786,443.273926 309.855621,443.108917 309.030243,443.107758 
	C276.248505,443.062286 243.466736,443.024017 210.684998,443.042389 
	C209.854797,443.042847 209.024963,443.687805 208.035538,444.953094 
z"/>
<path fill="#000000" opacity="1.000000" stroke="none" 
	d="
M732.069641,596.916016 
	C731.814758,581.552429 728.712158,567.083435 718.839111,554.735168 
	C711.239502,545.230225 701.227356,539.960815 689.358582,538.005859 
	C678.311462,536.186279 667.268982,536.086487 656.499573,539.442810 
	C635.026367,546.134949 624.479614,562.147034 620.096375,583.126160 
	C619.130554,587.749023 618.705383,592.484863 618.032471,598.056519 
	C618.022461,615.277100 618.012756,631.609924 617.999695,647.942749 
	C617.962891,693.940247 617.924744,739.937683 617.887207,785.935181 
	C587.603027,785.952942 557.318848,785.970703 526.528809,785.500732 
	C526.015320,737.417175 525.994934,689.821472 526.003174,642.225708 
	C526.013672,581.150574 526.047180,520.075439 526.070801,459.000305 
	C526.070801,459.000305 526.000000,459.000000 526.469360,459.006836 
	C557.274231,459.055511 587.609802,459.097351 617.965454,459.597809 
	C617.985535,474.775482 617.985535,489.494537 617.985535,505.716553 
	C619.181030,503.883789 619.497192,503.399078 619.813354,502.914368 
	C628.780945,493.837982 637.220337,484.151123 646.840149,475.828705 
	C661.171814,463.429962 678.211060,456.222015 697.102478,453.968842 
	C720.451416,451.183990 743.389221,452.760284 765.069824,462.659363 
	C794.532532,476.111633 811.891785,499.769806 819.840637,530.506165 
	C822.581787,541.105408 823.357666,552.212830 825.023560,563.997803 
	C825.010498,605.322021 825.018066,645.736511 824.996033,686.151001 
	C824.977905,719.412476 824.924744,752.673889 824.887146,785.935364 
	C794.603027,785.953064 764.318909,785.970764 733.528931,785.500610 
	C733.015381,724.196716 733.016052,663.380615 732.960999,602.564575 
	C732.959290,600.681458 732.379761,598.798828 732.069641,596.916016 
z"/>
<path fill="#806980" opacity="1.000000" stroke="none" 
	d="
M525.749023,459.273621 
	C526.047180,520.075439 526.013672,581.150574 526.003174,642.225708 
	C525.994934,689.821472 526.015320,737.417175 526.067993,785.474121 
	C525.741943,784.240356 525.047119,782.545715 525.046265,780.850647 
	C524.994812,675.224731 524.998230,569.598816 525.017700,463.972931 
	C525.018005,462.497589 525.284790,461.022278 525.749023,459.273621 
z"/>
<path fill="#806980" opacity="1.000000" stroke="none" 
	d="
M825.221436,785.684692 
	C824.924744,752.673889 824.977905,719.412476 824.996033,686.151001 
	C825.018066,645.736511 825.010498,605.322021 825.078308,564.438477 
	C825.427246,565.557068 825.963196,567.144592 825.964172,568.732300 
	C826.005615,639.494019 826.002625,710.255737 825.981445,781.017456 
	C825.980957,782.489685 825.703857,783.961792 825.221436,785.684692 
z"/>
<path fill="#986592" opacity="1.000000" stroke="none" 
	d="
M208.209991,785.699097 
	C207.921280,742.551941 207.960693,699.143555 207.999771,655.735229 
	C208.001556,653.751221 208.000000,651.767151 208.000000,649.975952 
	C208.487732,649.573303 208.738113,649.185730 208.988342,649.185791 
	C233.258286,649.194763 257.528198,649.233215 282.126160,649.594727 
	C260.006409,649.946411 237.556030,650.164551 215.112778,649.858826 
	C209.823044,649.786804 208.871475,651.462769 208.893539,656.321411 
	C209.080124,697.392395 209.006363,738.464600 208.980377,779.536438 
	C208.979126,781.503662 208.692047,783.470764 208.209991,785.699097 
z"/>
<path fill="#595359" opacity="1.000000" stroke="none" 
	d="
M315.723633,358.567932 
	C304.730316,358.897919 293.426453,358.988434 282.122498,358.993347 
	C226.422012,359.017517 170.721512,359.019012 114.562210,359.069946 
	C115.449821,358.740936 116.795998,358.047516 118.142723,358.046417 
	C183.078491,357.993622 248.014297,357.999573 312.950104,358.012848 
	C313.771118,358.013031 314.592072,358.192963 315.723633,358.567932 
z"/>
<path fill="#806980" opacity="1.000000" stroke="none" 
	d="
M732.044983,597.389282 
	C732.379761,598.798828 732.959290,600.681458 732.960999,602.564575 
	C733.016052,663.380615 733.015381,724.196716 733.068054,785.473999 
	C732.741943,784.239746 732.048096,782.544617 732.046753,780.848877 
	C731.997864,719.853516 732.013550,658.858032 732.044983,597.389282 
z"/>
<path fill="#806980" opacity="1.000000" stroke="none" 
	d="
M618.221436,785.684448 
	C617.924744,739.937683 617.962891,693.940247 617.999695,647.942749 
	C618.012756,631.609924 618.022461,615.277100 618.100464,598.481201 
	C618.444763,599.604675 618.963928,601.191162 618.965027,602.777954 
	C619.006348,662.191711 619.003235,721.605530 618.981445,781.019287 
	C618.980896,782.490845 618.703857,783.962219 618.221436,785.684448 
z"/>
<path fill="#806980" opacity="1.000000" stroke="none" 
	d="
M617.945312,459.139191 
	C587.609802,459.097351 557.274231,459.055511 526.469482,459.042236 
	C527.542419,458.713837 529.084045,458.048492 530.626831,458.045715 
	C559.440613,457.993774 588.254395,458.020477 617.523804,458.321747 
	C617.968018,458.788269 617.956665,458.963745 617.945312,459.139191 
z"/>
<path fill="#7F687F" opacity="1.000000" stroke="none" 
	d="
M617.965454,459.597809 
	C617.956665,458.963745 617.968018,458.788269 617.991943,458.350281 
	C618.335510,459.795044 618.932617,461.498779 618.955200,463.210114 
	C619.127075,476.238647 619.186707,489.268646 619.547363,502.606262 
	C619.497192,503.399078 619.181030,503.883789 617.985535,505.716553 
	C617.985535,489.494537 617.985535,474.775482 617.965454,459.597809 
z"/>
<path fill="#FFFFFF" opacity="1.000000" stroke="none" 
	d="
M1576.766846,535.001099 
	C1586.430054,536.810425 1595.199707,539.651978 1602.879028,545.340820 
	C1613.487915,553.199829 1621.406372,563.154480 1625.919556,575.537292 
	C1628.771240,583.361084 1630.846191,591.468079 1633.383423,599.823181 
	C1588.225098,599.823181 1543.816895,599.823181 1499.332520,599.823181 
	C1502.344727,584.429749 1507.791138,570.276489 1517.553101,557.732849 
	C1526.442993,546.310181 1537.857422,539.057800 1551.665649,536.238403 
	C1559.634766,534.611206 1568.083984,535.334656 1576.766846,535.001099 
z"/>
<path fill="#FFFFFF" opacity="1.000000" stroke="none" 
	d="
M1849.248535,661.254700 
	C1858.078125,653.129211 1868.155273,648.343872 1879.692383,647.064392 
	C1888.644409,646.071594 1897.698853,644.802307 1906.641724,645.187988 
	C1922.984985,645.892700 1938.979614,649.113586 1954.107422,655.681396 
	C1955.322144,656.208740 1956.845947,657.845459 1956.875488,659.001099 
	C1957.179199,670.916931 1957.220337,682.790161 1951.640625,693.897400 
	C1944.952881,707.210571 1934.098389,715.559204 1920.602051,721.003296 
	C1907.977173,726.096008 1894.782837,727.845947 1881.342285,726.899414 
	C1869.244385,726.047485 1857.630127,722.714233 1848.765137,714.002136 
	C1842.987671,708.324341 1839.370972,701.073792 1838.939209,692.501343 
	C1838.350952,680.817200 1840.604004,670.208374 1849.248535,661.254700 
z"/>
<path fill="#A54A96" opacity="1.000000" stroke="none" 
	d="
M312.157013,443.916107 
	C330.800995,445.115417 348.058624,449.852905 361.377258,463.972809 
	C370.252869,473.382416 374.431519,484.870605 374.972687,497.681824 
	C375.423370,508.350861 375.518311,519.015198 371.237244,529.140808 
	C362.710052,549.309570 346.407257,559.587036 325.889618,563.803711 
	C317.885925,565.448608 309.521729,565.845642 301.315033,565.906250 
	C270.854553,566.131470 240.391312,565.979980 209.464661,565.444763 
	C209.007263,524.628906 209.014297,484.338318 209.487640,444.029297 
	C244.021622,443.979309 278.089325,443.947723 312.157013,443.916107 
z"/>
<path fill="#986592" opacity="1.000000" stroke="none" 
	d="
M209.021347,444.047699 
	C209.014297,484.338318 209.007263,524.628906 209.000519,565.376648 
	C208.667267,564.514587 208.043716,563.195801 208.042343,561.876282 
	C208.002151,522.901917 208.023743,483.927521 208.321899,444.491852 
	C208.608276,444.030609 209.021347,444.047699 209.021347,444.047699 
z"/>
<path fill="#7F687F" opacity="1.000000" stroke="none" 
	d="
M209.487640,444.029297 
	C209.021347,444.047699 208.608276,444.030609 208.401611,444.031372 
	C209.024963,443.687805 209.854797,443.042847 210.684998,443.042389 
	C243.466736,443.024017 276.248505,443.062286 309.030243,443.107758 
	C309.855621,443.108917 310.680786,443.273926 311.831543,443.639313 
	C278.089325,443.947723 244.021622,443.979309 209.487640,444.029297 
z"/>
</svg>